<svg xmlns="http://www.w3.org/2000/svg" xmlns:xlink="http://www.w3.org/1999/xlink" width="331" height="307" contentScriptType="application/ecmascript" contentStyleType="text/css" style="width:331px;height:307px" preserveAspectRatio="none" version="1.1" viewBox="0 0 331 307" zoomAndPan="magnify"><defs><filter id="f45bpouzmf7pz" width="300%" height="300%" x="-1" y="-1"><feGaussianBlur result="blurOut" stdDeviation="2"/><feColorMatrix in="blurOut" result="blurOut2" type="matrix" values="0 0 0 0 0 0 0 0 0 0 0 0 0 0 0 0 0 0 .4 0"/><feOffset dx="4" dy="4" in="blurOut2" result="blurOut3"/><feBlend in="SourceGraphic" in2="blurOut3" mode="normal"/></filter></defs><g><rect id="Directory" width="84" height="38.266" x="203" y="7" fill="#FEFECE" codeLine="4" filter="url(#f45bpouzmf7pz)" style="stroke:#a80036;stroke-width:1.5"/><ellipse cx="218" cy="26.133" fill="#ADD1B2" rx="11" ry="11" style="stroke:#a80036;stroke-width:1"/><path fill="#000" d="M220.4731,32.2759 Q219.8921,32.5747 219.2529,32.7241 Q218.6138,32.8735 217.9082,32.8735 Q215.4014,32.8735 214.0815,31.2217 Q212.7617,29.5698 212.7617,26.4487 Q212.7617,23.3193 214.0815,21.6675 Q215.4014,20.0156 217.9082,20.0156 Q218.6138,20.0156 219.2612,20.165 Q219.9087,20.3145 220.4731,20.6133 L220.4731,23.3359 Q219.8423,22.7549 219.2488,22.4851 Q218.6553,22.2153 218.0244,22.2153 Q216.6797,22.2153 215.9949,23.282 Q215.3101,24.3486 215.3101,26.4487 Q215.3101,28.5405 215.9949,29.6072 Q216.6797,30.6738 218.0244,30.6738 Q218.6553,30.6738 219.2488,30.4041 Q219.8423,30.1343 220.4731,29.5532 Z"/><text x="232" y="23.602" fill="#000" font-family="sans-serif" font-size="12" font-style="italic" lengthAdjust="spacing" textLength="52">«service»</text><text x="232" y="37.734" fill="#000" font-family="sans-serif" font-size="12" lengthAdjust="spacing" textLength="52">Directory</text><rect id="TD" width="80" height="32" x="205" y="122" fill="#FEFECE" codeLine="7" filter="url(#f45bpouzmf7pz)" style="stroke:#a80036;stroke-width:1.5"/><ellipse cx="220" cy="138" fill="#ADD1B2" rx="11" ry="11" style="stroke:#a80036;stroke-width:1"/><path fill="#000" d="M222.4731,144.1431 Q221.8921,144.4419 221.2529,144.5913 Q220.6138,144.7407 219.9082,144.7407 Q217.4014,144.7407 216.0815,143.0889 Q214.7617,141.437 214.7617,138.3159 Q214.7617,135.1865 216.0815,133.5347 Q217.4014,131.8828 219.9082,131.8828 Q220.6138,131.8828 221.2612,132.0322 Q221.9087,132.1816 222.4731,132.4805 L222.4731,135.2031 Q221.8423,134.6221 221.2488,134.3523 Q220.6553,134.0825 220.0244,134.0825 Q218.6797,134.0825 217.9949,135.1492 Q217.3101,136.2158 217.3101,138.3159 Q217.3101,140.4077 217.9949,141.4744 Q218.6797,142.541 220.0244,142.541 Q220.6553,142.541 221.2488,142.2712 Q221.8423,142.0015 222.4731,141.4204 Z"/><text x="234" y="142.535" fill="#000" font-family="sans-serif" font-size="12" lengthAdjust="spacing" textLength="48">td:Thing</text><path fill="#FBFB77" d="M6,125.5 L6,150.8105 A0,0 0 0 0 6,150.8105 L170,150.8105 A0,0 0 0 0 170,150.8105 L170,143.5 L204.9594,138 L170,135.5 L170,135.5 L160,125.5 L6,125.5 A0,0 0 0 0 6,125.5" filter="url(#f45bpouzmf7pz)" style="stroke:#a80036;stroke-width:1"/><path fill="#FBFB77" d="M160,125.5 L160,135.5 L170,135.5 L160,125.5" style="stroke:#a80036;stroke-width:1"/><text x="12" y="143.068" fill="#000" font-family="sans-serif" font-size="13" lengthAdjust="spacing" textLength="143">Thing Description (TD)</text><rect id="RI" width="145" height="78.865" x="172.5" y="215" fill="#FEFECE" codeLine="11" filter="url(#f45bpouzmf7pz)" style="stroke:#a80036;stroke-width:1.5"/><ellipse cx="187.5" cy="231" fill="#ADD1B2" rx="11" ry="11" style="stroke:#a80036;stroke-width:1"/><path fill="#000" d="M189.9731,237.1431 Q189.3921,237.4419 188.7529,237.5913 Q188.1138,237.7407 187.4082,237.7407 Q184.9014,237.7407 183.5815,236.0889 Q182.2617,234.437 182.2617,231.3159 Q182.2617,228.1865 183.5815,226.5347 Q184.9014,224.8828 187.4082,224.8828 Q188.1138,224.8828 188.7612,225.0322 Q189.4087,225.1816 189.9731,225.4805 L189.9731,228.2031 Q189.3423,227.6221 188.7488,227.3523 Q188.1553,227.0825 187.5244,227.0825 Q186.1797,227.0825 185.4949,228.1492 Q184.8101,229.2158 184.8101,231.3159 Q184.8101,233.4077 185.4949,234.4744 Q186.1797,235.541 187.5244,235.541 Q188.1553,235.541 188.7488,235.2712 Q189.3423,235.0015 189.9731,234.4204 Z"/><text x="201.5" y="235.535" fill="#000" font-family="sans-serif" font-size="12" lengthAdjust="spacing" textLength="113">tdd:RegistrationInfo</text><line style="stroke:#a80036;stroke-width:1.5" x1="173.5" x2="316.5" y1="247" y2="247"/><text x="178.5" y="261.635" fill="#000" font-family="sans-serif" font-size="11" lengthAdjust="spacing" textLength="121">tdd:created {readOnly}</text><text x="178.5" y="274.59" fill="#000" font-family="sans-serif" font-size="11" lengthAdjust="spacing" textLength="91">tdd:id {readOnly}</text><text x="178.5" y="287.545" fill="#000" font-family="sans-serif" font-size="11" lengthAdjust="spacing" textLength="128">tdd:modified {readOnly}</text><path id="Directory-backto-TD" fill="none" d="M245,58.3271 C245,79.1641 245,105.3603 245,121.8982" codeLine="19" style="stroke:#a80036;stroke-width:1"/><polygon fill="#FFF" points="245 45.254 241 51.254 245 57.254 249 51.254 245 45.254" style="stroke:#a80036;stroke-width:1"/><text x="246" y="88.568" fill="#000" font-family="sans-serif" font-size="13" lengthAdjust="spacing" textLength="54">contains</text><text x="235.825" y="65.687" fill="#000" font-family="sans-serif" font-size="13" lengthAdjust="spacing" textLength="8">1</text><text x="219.081" y="111.114" fill="#000" font-family="sans-serif" font-size="13" lengthAdjust="spacing" textLength="22">0..*</text><path id="TD-backto-RI" fill="none" d="M245,167.3532 C245,181.749 245,199.2982 245,214.8654" codeLine="20" style="stroke:#a80036;stroke-width:1"/><polygon fill="#A80036" points="245 154.199 241 160.199 245 166.199 249 160.199 245 154.199" style="stroke:#a80036;stroke-width:1"/><text x="235.675" y="174.669" fill="#000" font-family="sans-serif" font-size="13" lengthAdjust="spacing" textLength="8">1</text><text x="218.938" y="204.371" fill="#000" font-family="sans-serif" font-size="13" lengthAdjust="spacing" textLength="24">0..1</text></g></svg>