<svg xmlns="http://www.w3.org/2000/svg" xmlns:xlink="http://www.w3.org/1999/xlink" width="441" height="360" contentScriptType="application/ecmascript" contentStyleType="text/css" style="width:441px;height:360px" preserveAspectRatio="none" version="1.1" viewBox="0 0 441 360" zoomAndPan="magnify"><defs><filter id="fghizjkwqux6u" width="300%" height="300%" x="-1" y="-1"><feGaussianBlur result="blurOut" stdDeviation="2"/><feColorMatrix in="blurOut" result="blurOut2" type="matrix" values="0 0 0 0 0 0 0 0 0 0 0 0 0 0 0 0 0 0 .4 0"/><feOffset dx="4" dy="4" in="blurOut2" result="blurOut3"/><feBlend in="SourceGraphic" in2="blurOut3" mode="normal"/></filter></defs><g><rect id="SelfDesc" width="155" height="38.266" x="31" y="106" fill="#FEFECE" codeLine="7" filter="url(#fghizjkwqux6u)" style="stroke:#a80036;stroke-width:1.5"/><ellipse cx="46" cy="125.133" fill="#ADD1B2" rx="11" ry="11" style="stroke:#a80036;stroke-width:1"/><path fill="#000" d="M48.4731,131.2759 Q47.8921,131.5747 47.2529,131.7241 Q46.6138,131.8735 45.9082,131.8735 Q43.4014,131.8735 42.0815,130.2217 Q40.7617,128.5698 40.7617,125.4487 Q40.7617,122.3193 42.0815,120.6675 Q43.4014,119.0156 45.9082,119.0156 Q46.6138,119.0156 47.2612,119.165 Q47.9087,119.3145 48.4731,119.6133 L48.4731,122.3359 Q47.8423,121.7549 47.2488,121.4851 Q46.6553,121.2153 46.0244,121.2153 Q44.6797,121.2153 43.9949,122.282 Q43.3101,123.3486 43.3101,125.4487 Q43.3101,127.5405 43.9949,128.6072 Q44.6797,129.6738 46.0244,129.6738 Q46.6553,129.6738 47.2488,129.4041 Q47.8423,129.1343 48.4731,128.5532 Z"/><text x="95.5" y="122.602" fill="#000" font-family="sans-serif" font-size="12" font-style="italic" lengthAdjust="spacing" textLength="52">«service»</text><text x="60" y="136.734" fill="#000" font-family="sans-serif" font-size="12" lengthAdjust="spacing" textLength="123">Self-describing Thing</text><rect id="Directory" width="84" height="38.266" x="221.5" y="106" fill="#FEFECE" codeLine="8" filter="url(#fghizjkwqux6u)" style="stroke:#a80036;stroke-width:1.5"/><ellipse cx="236.5" cy="125.133" fill="#ADD1B2" rx="11" ry="11" style="stroke:#a80036;stroke-width:1"/><path fill="#000" d="M238.9731,131.2759 Q238.3921,131.5747 237.7529,131.7241 Q237.1138,131.8735 236.4082,131.8735 Q233.9014,131.8735 232.5815,130.2217 Q231.2617,128.5698 231.2617,125.4487 Q231.2617,122.3193 232.5815,120.6675 Q233.9014,119.0156 236.4082,119.0156 Q237.1138,119.0156 237.7612,119.165 Q238.4087,119.3145 238.9731,119.6133 L238.9731,122.3359 Q238.3423,121.7549 237.7488,121.4851 Q237.1553,121.2153 236.5244,121.2153 Q235.1797,121.2153 234.4949,122.282 Q233.8101,123.3486 233.8101,125.4487 Q233.8101,127.5405 234.4949,128.6072 Q235.1797,129.6738 236.5244,129.6738 Q237.1553,129.6738 237.7488,129.4041 Q238.3423,129.1343 238.9731,128.5532 Z"/><text x="250.5" y="122.602" fill="#000" font-family="sans-serif" font-size="12" font-style="italic" lengthAdjust="spacing" textLength="52">«service»</text><text x="250.5" y="136.734" fill="#000" font-family="sans-serif" font-size="12" lengthAdjust="spacing" textLength="52">Directory</text><rect id="DD" width="207" height="32" x="7" y="314" fill="#FEFECE" codeLine="14" filter="url(#fghizjkwqux6u)" style="stroke:#a80036;stroke-width:1.5"/><ellipse cx="22" cy="330" fill="#ADD1B2" rx="11" ry="11" style="stroke:#a80036;stroke-width:1"/><path fill="#000" d="M24.4731,336.1431 Q23.8921,336.4419 23.2529,336.5913 Q22.6138,336.7407 21.9082,336.7407 Q19.4014,336.7407 18.0815,335.0889 Q16.7617,333.437 16.7617,330.3159 Q16.7617,327.1865 18.0815,325.5347 Q19.4014,323.8828 21.9082,323.8828 Q22.6138,323.8828 23.2612,324.0322 Q23.9087,324.1816 24.4731,324.4805 L24.4731,327.2031 Q23.8423,326.6221 23.2488,326.3523 Q22.6553,326.0825 22.0244,326.0825 Q20.6797,326.0825 19.9949,327.1492 Q19.3101,328.2158 19.3101,330.3159 Q19.3101,332.4077 19.9949,333.4744 Q20.6797,334.541 22.0244,334.541 Q22.6553,334.541 23.2488,334.2712 Q23.8423,334.0015 24.4731,333.4204 Z"/><text x="36" y="334.535" fill="#000" font-family="sans-serif" font-size="12" lengthAdjust="spacing" textLength="175">discovery:DirectoryDescription</text><rect id="LD" width="178" height="32" x="249.5" y="314" fill="#FEFECE" codeLine="17" filter="url(#fghizjkwqux6u)" style="stroke:#a80036;stroke-width:1.5"/><ellipse cx="264.5" cy="330" fill="#ADD1B2" rx="11" ry="11" style="stroke:#a80036;stroke-width:1"/><path fill="#000" d="M266.9731,336.1431 Q266.3921,336.4419 265.7529,336.5913 Q265.1138,336.7407 264.4082,336.7407 Q261.9014,336.7407 260.5815,335.0889 Q259.2617,333.437 259.2617,330.3159 Q259.2617,327.1865 260.5815,325.5347 Q261.9014,323.8828 264.4082,323.8828 Q265.1138,323.8828 265.7612,324.0322 Q266.4087,324.1816 266.9731,324.4805 L266.9731,327.2031 Q266.3423,326.6221 265.7488,326.3523 Q265.1553,326.0825 264.5244,326.0825 Q263.1797,326.0825 262.4949,327.1492 Q261.8101,328.2158 261.8101,330.3159 Q261.8101,332.4077 262.4949,333.4744 Q263.1797,334.541 264.5244,334.541 Q265.1553,334.541 265.7488,334.2712 Q266.3423,334.0015 266.9731,333.4204 Z"/><text x="278.5" y="334.535" fill="#000" font-family="sans-serif" font-size="12" lengthAdjust="spacing" textLength="146">discovery:LinkDescription</text><rect id="Thing" width="80" height="38.266" x="145.5" y="7" fill="#FEFECE" codeLine="5" filter="url(#fghizjkwqux6u)" style="stroke:#a80036;stroke-width:1.5"/><ellipse cx="160.5" cy="26.133" fill="#ADD1B2" rx="11" ry="11" style="stroke:#a80036;stroke-width:1"/><path fill="#000" d="M162.9731,32.2759 Q162.3921,32.5747 161.7529,32.7241 Q161.1138,32.8735 160.4082,32.8735 Q157.9014,32.8735 156.5815,31.2217 Q155.2617,29.5698 155.2617,26.4487 Q155.2617,23.3193 156.5815,21.6675 Q157.9014,20.0156 160.4082,20.0156 Q161.1138,20.0156 161.7612,20.165 Q162.4087,20.3145 162.9731,20.6133 L162.9731,23.3359 Q162.3423,22.7549 161.7488,22.4851 Q161.1553,22.2153 160.5244,22.2153 Q159.1797,22.2153 158.4949,23.282 Q157.8101,24.3486 157.8101,26.4487 Q157.8101,28.5405 158.4949,29.6072 Q159.1797,30.6738 160.5244,30.6738 Q161.1553,30.6738 161.7488,30.4041 Q162.3423,30.1343 162.9731,29.5532 Z"/><text x="172.5" y="23.602" fill="#000" font-family="sans-serif" font-size="12" font-style="italic" lengthAdjust="spacing" textLength="52">«service»</text><text x="182.5" y="37.734" fill="#000" font-family="sans-serif" font-size="12" lengthAdjust="spacing" textLength="32">Thing</text><rect id="TD" width="80" height="32" x="140.5" y="221" fill="#FEFECE" codeLine="11" filter="url(#fghizjkwqux6u)" style="stroke:#a80036;stroke-width:1.5"/><ellipse cx="155.5" cy="237" fill="#ADD1B2" rx="11" ry="11" style="stroke:#a80036;stroke-width:1"/><path fill="#000" d="M157.9731,243.1431 Q157.3921,243.4419 156.7529,243.5913 Q156.1138,243.7407 155.4082,243.7407 Q152.9014,243.7407 151.5815,242.0889 Q150.2617,240.437 150.2617,237.3159 Q150.2617,234.1865 151.5815,232.5347 Q152.9014,230.8828 155.4082,230.8828 Q156.1138,230.8828 156.7612,231.0322 Q157.4087,231.1816 157.9731,231.4805 L157.9731,234.2031 Q157.3423,233.6221 156.7488,233.3523 Q156.1553,233.0825 155.5244,233.0825 Q154.1797,233.0825 153.4949,234.1492 Q152.8101,235.2158 152.8101,237.3159 Q152.8101,239.4077 153.4949,240.4744 Q154.1797,241.541 155.5244,241.541 Q156.1553,241.541 156.7488,241.2712 Q157.3423,241.0015 157.9731,240.4204 Z"/><text x="169.5" y="241.535" fill="#000" font-family="sans-serif" font-size="12" lengthAdjust="spacing" textLength="48">td:Thing</text><path fill="#FBFB77" d="M255.5,224.5 L255.5,233 L220.6699,237 L255.5,241 L255.5,249.8105 A0,0 0 0 0 255.5,249.8105 L419.5,249.8105 A0,0 0 0 0 419.5,249.8105 L419.5,234.5 L409.5,224.5 L255.5,224.5 A0,0 0 0 0 255.5,224.5" filter="url(#fghizjkwqux6u)" style="stroke:#a80036;stroke-width:1"/><path fill="#FBFB77" d="M409.5,224.5 L409.5,234.5 L419.5,234.5 L409.5,224.5" style="stroke:#a80036;stroke-width:1"/><text x="261.5" y="242.068" fill="#000" font-family="sans-serif" font-size="13" lengthAdjust="spacing" textLength="143">Thing Description (TD)</text><path id="Thing-backto-SelfDesc" fill="none" d="M158.2837,60.9924 C146.5122,76.1272 133.197,93.2468 123.3008,105.9704" codeLine="22" style="stroke:#a80036;stroke-width:1"/><polygon fill="none" points="152.849 56.578 170.654 45.088 163.9 65.173 152.849 56.578" style="stroke:#a80036;stroke-width:1"/><path id="Thing-backto-Directory" fill="none" d="M213.0698,60.9924 C224.9941,76.1272 238.4823,93.2468 248.507,105.9704" codeLine="23" style="stroke:#a80036;stroke-width:1"/><polygon fill="none" points="207.418 65.13 200.539 45.088 218.415 56.466 207.418 65.13" style="stroke:#a80036;stroke-width:1"/><path id="SelfDesc-backto-TD" fill="none" d="M125.1777,155.6394 C131.5712,166.9258 139.1097,179.7066 146.5,191 C153.1341,201.1378 161.1669,212.0602 167.7585,220.7169" codeLine="24" style="stroke:#a80036;stroke-width:1"/><polygon fill="#FFF" points="118.751 144.12 118.181 151.309 124.597 154.599 125.167 147.411 118.751 144.12" style="stroke:#a80036;stroke-width:1"/><text x="147.5" y="187.568" fill="#000" font-family="sans-serif" font-size="13" lengthAdjust="spacing" textLength="54">provides</text><text x="112.665" y="164.848" fill="#000" font-family="sans-serif" font-size="13" lengthAdjust="spacing" textLength="8">1</text><text x="125.879" y="210.163" fill="#000" font-family="sans-serif" font-size="13" lengthAdjust="spacing" textLength="24">0..1</text><path id="TD-backto-DD" fill="none" d="M156.0673,269.4606 C144.7254,284.5291 131.7498,301.7681 122.5533,313.9863" codeLine="25" style="stroke:#a80036;stroke-width:1"/><polygon fill="none" points="150.687 264.969 168.307 253.199 161.872 273.388 150.687 264.969" style="stroke:#a80036;stroke-width:1"/><path id="TD-backto-LD" fill="none" d="M225.448,263.4568 C253.1322,279.7519 287.7158,300.108 311.2939,313.9863" codeLine="26" style="stroke:#a80036;stroke-width:1"/><polygon fill="none" points="221.707 269.377 208.022 253.199 228.808 257.312 221.707 269.377" style="stroke:#a80036;stroke-width:1"/><path id="Directory-backto-TD" fill="none" d="M241.2984,154.9588 C225.5983,176.1445 205.1574,203.7273 192.4326,220.8982" codeLine="27" style="stroke:#a80036;stroke-width:1"/><polygon fill="#FFF" points="249.232 144.254 242.446 146.692 242.087 153.895 248.873 151.456 249.232 144.254" style="stroke:#a80036;stroke-width:1"/><text x="227.5" y="187.568" fill="#000" font-family="sans-serif" font-size="13" lengthAdjust="spacing" textLength="54">contains</text><text x="235.865" y="164.687" fill="#000" font-family="sans-serif" font-size="13" lengthAdjust="spacing" textLength="8">1</text><text x="170.765" y="210.114" fill="#000" font-family="sans-serif" font-size="13" lengthAdjust="spacing" textLength="22">0..*</text></g></svg>