<svg xmlns="http://www.w3.org/2000/svg" xmlns:xlink="http://www.w3.org/1999/xlink" width="454" height="288" contentScriptType="application/ecmascript" contentStyleType="text/css" style="width:454px;height:288px" preserveAspectRatio="none" version="1.1" viewBox="0 0 454 288" zoomAndPan="magnify"><defs><filter id="f1gldskh4vc3bq" width="300%" height="300%" x="-1" y="-1"><feGaussianBlur result="blurOut" stdDeviation="2"/><feColorMatrix in="blurOut" result="blurOut2" type="matrix" values="0 0 0 0 0 0 0 0 0 0 0 0 0 0 0 0 0 0 .4 0"/><feOffset dx="4" dy="4" in="blurOut2" result="blurOut3"/><feBlend in="SourceGraphic" in2="blurOut3" mode="normal"/></filter></defs><g><rect id="td:Thing" width="80" height="32" x="205" y="100" fill="#FEFECE" codeLine="2" filter="url(#f1gldskh4vc3bq)" style="stroke:#a80036;stroke-width:1.5"/><ellipse cx="220" cy="116" fill="#ADD1B2" rx="11" ry="11" style="stroke:#a80036;stroke-width:1"/><path fill="#000" d="M222.3438,111.6719 C221.4063,111.2344 220.8125,111.0938 219.9375,111.0938 C217.3125,111.0938 215.3125,113.1719 215.3125,115.8906 L215.3125,117.0156 C215.3125,119.5938 217.4219,121.4844 220.3125,121.4844 C221.5313,121.4844 222.6875,121.1875 223.4375,120.6406 C224.0156,120.2344 224.3438,119.7813 224.3438,119.3906 C224.3438,118.9375 223.9531,118.5469 223.4844,118.5469 C223.2656,118.5469 223.0625,118.625 222.875,118.8125 C222.4219,119.2969 222.4219,119.2969 222.2344,119.3906 C221.8125,119.6563 221.125,119.7813 220.3594,119.7813 C218.3125,119.7813 217.0156,118.6875 217.0156,116.9844 L217.0156,115.8906 C217.0156,114.1094 218.2656,112.7969 220,112.7969 C220.5781,112.7969 221.1875,112.9531 221.6563,113.2031 C222.1406,113.4844 222.3125,113.7031 222.4063,114.1094 C222.4688,114.5156 222.5,114.6406 222.6406,114.7656 C222.7813,114.9063 223.0156,115.0156 223.2344,115.0156 C223.5,115.0156 223.7656,114.875 223.9375,114.6563 C224.0469,114.5 224.0781,114.3125 224.0781,113.8906 L224.0781,112.4688 C224.0781,112.0313 224.0625,111.9063 223.9688,111.75 C223.8125,111.4844 223.5313,111.3438 223.2344,111.3438 C222.9375,111.3438 222.7344,111.4375 222.5156,111.75 L222.3438,111.6719 Z"/><text x="234" y="120.154" fill="#000" font-family="sans-serif" font-size="12" lengthAdjust="spacing" textLength="48">td:Thing</text><rect id="tdd:RegistrationInformation" width="194" height="65.609" x="148" y="209" fill="#FEFECE" codeLine="4" filter="url(#f1gldskh4vc3bq)" style="stroke:#a80036;stroke-width:1.5"/><ellipse cx="163" cy="225" fill="#ADD1B2" rx="11" ry="11" style="stroke:#a80036;stroke-width:1"/><path fill="#000" d="M165.3438,220.6719 C164.4063,220.2344 163.8125,220.0938 162.9375,220.0938 C160.3125,220.0938 158.3125,222.1719 158.3125,224.8906 L158.3125,226.0156 C158.3125,228.5938 160.4219,230.4844 163.3125,230.4844 C164.5313,230.4844 165.6875,230.1875 166.4375,229.6406 C167.0156,229.2344 167.3438,228.7813 167.3438,228.3906 C167.3438,227.9375 166.9531,227.5469 166.4844,227.5469 C166.2656,227.5469 166.0625,227.625 165.875,227.8125 C165.4219,228.2969 165.4219,228.2969 165.2344,228.3906 C164.8125,228.6563 164.125,228.7813 163.3594,228.7813 C161.3125,228.7813 160.0156,227.6875 160.0156,225.9844 L160.0156,224.8906 C160.0156,223.1094 161.2656,221.7969 163,221.7969 C163.5781,221.7969 164.1875,221.9531 164.6563,222.2031 C165.1406,222.4844 165.3125,222.7031 165.4063,223.1094 C165.4688,223.5156 165.5,223.6406 165.6406,223.7656 C165.7813,223.9063 166.0156,224.0156 166.2344,224.0156 C166.5,224.0156 166.7656,223.875 166.9375,223.6563 C167.0469,223.5 167.0781,223.3125 167.0781,222.8906 L167.0781,221.4688 C167.0781,221.0313 167.0625,220.9063 166.9688,220.75 C166.8125,220.4844 166.5313,220.3438 166.2344,220.3438 C165.9375,220.3438 165.7344,220.4375 165.5156,220.75 L165.3438,220.6719 Z"/><text x="177" y="229.154" fill="#000" font-family="sans-serif" font-size="12" lengthAdjust="spacing" textLength="162">tdd:RegistrationInformation</text><line style="stroke:#a80036;stroke-width:1.5" x1="149" x2="341" y1="241" y2="241"/><text x="154" y="255.21" fill="#000" font-family="sans-serif" font-size="11" lengthAdjust="spacing" textLength="146">dc:created : xsd:datetime</text><text x="154" y="268.015" fill="#000" font-family="sans-serif" font-size="11" lengthAdjust="spacing" textLength="152">dc:modified : xsd:datetime</text><path fill="#FBFB77" d="M6,103.5 L6,128.6328 A0,0 0 0 0 6,128.6328 L170,128.6328 A0,0 0 0 0 170,128.6328 L170,121.5 L204.959,116 L170,113.5 L170,113.5 L160,103.5 L6,103.5 A0,0 0 0 0 6,103.5" filter="url(#f1gldskh4vc3bq)" style="stroke:#a80036;stroke-width:1"/><path fill="#FBFB77" d="M160,103.5 L160,113.5 L170,113.5 L160,103.5" style="stroke:#a80036;stroke-width:1"/><text x="12" y="120.567" fill="#000" font-family="sans-serif" font-size="13" lengthAdjust="spacing" textLength="143">Thing Description (TD)</text><rect id="tdd:LinkDescription" width="148" height="32" x="71" y="7" fill="#FEFECE" filter="url(#f1gldskh4vc3bq)" style="stroke:#a80036;stroke-width:1.5"/><ellipse cx="86" cy="23" fill="#ADD1B2" rx="11" ry="11" style="stroke:#a80036;stroke-width:1"/><path fill="#000" d="M88.3438,18.6719 C87.4063,18.2344 86.8125,18.0938 85.9375,18.0938 C83.3125,18.0938 81.3125,20.1719 81.3125,22.8906 L81.3125,24.0156 C81.3125,26.5938 83.4219,28.4844 86.3125,28.4844 C87.5313,28.4844 88.6875,28.1875 89.4375,27.6406 C90.0156,27.2344 90.3438,26.7813 90.3438,26.3906 C90.3438,25.9375 89.9531,25.5469 89.4844,25.5469 C89.2656,25.5469 89.0625,25.625 88.875,25.8125 C88.4219,26.2969 88.4219,26.2969 88.2344,26.3906 C87.8125,26.6563 87.125,26.7813 86.3594,26.7813 C84.3125,26.7813 83.0156,25.6875 83.0156,23.9844 L83.0156,22.8906 C83.0156,21.1094 84.2656,19.7969 86,19.7969 C86.5781,19.7969 87.1875,19.9531 87.6563,20.2031 C88.1406,20.4844 88.3125,20.7031 88.4063,21.1094 C88.4688,21.5156 88.5,21.6406 88.6406,21.7656 C88.7813,21.9063 89.0156,22.0156 89.2344,22.0156 C89.5,22.0156 89.7656,21.875 89.9375,21.6563 C90.0469,21.5 90.0781,21.3125 90.0781,20.8906 L90.0781,19.4688 C90.0781,19.0313 90.0625,18.9063 89.9688,18.75 C89.8125,18.4844 89.5313,18.3438 89.2344,18.3438 C88.9375,18.3438 88.7344,18.4375 88.5156,18.75 L88.3438,18.6719 Z"/><text x="100" y="27.154" fill="#000" font-family="sans-serif" font-size="12" lengthAdjust="spacing" textLength="116">tdd:LinkDescription</text><rect id="tdd:DirectoryDescription" width="181" height="32" x="254.5" y="7" fill="#FEFECE" filter="url(#f1gldskh4vc3bq)" style="stroke:#a80036;stroke-width:1.5"/><ellipse cx="269.5" cy="23" fill="#ADD1B2" rx="11" ry="11" style="stroke:#a80036;stroke-width:1"/><path fill="#000" d="M271.8438,18.6719 C270.9063,18.2344 270.3125,18.0938 269.4375,18.0938 C266.8125,18.0938 264.8125,20.1719 264.8125,22.8906 L264.8125,24.0156 C264.8125,26.5938 266.9219,28.4844 269.8125,28.4844 C271.0313,28.4844 272.1875,28.1875 272.9375,27.6406 C273.5156,27.2344 273.8438,26.7813 273.8438,26.3906 C273.8438,25.9375 273.4531,25.5469 272.9844,25.5469 C272.7656,25.5469 272.5625,25.625 272.375,25.8125 C271.9219,26.2969 271.9219,26.2969 271.7344,26.3906 C271.3125,26.6563 270.625,26.7813 269.8594,26.7813 C267.8125,26.7813 266.5156,25.6875 266.5156,23.9844 L266.5156,22.8906 C266.5156,21.1094 267.7656,19.7969 269.5,19.7969 C270.0781,19.7969 270.6875,19.9531 271.1563,20.2031 C271.6406,20.4844 271.8125,20.7031 271.9063,21.1094 C271.9688,21.5156 272,21.6406 272.1406,21.7656 C272.2813,21.9063 272.5156,22.0156 272.7344,22.0156 C273,22.0156 273.2656,21.875 273.4375,21.6563 C273.5469,21.5 273.5781,21.3125 273.5781,20.8906 L273.5781,19.4688 C273.5781,19.0313 273.5625,18.9063 273.4688,18.75 C273.3125,18.4844 273.0313,18.3438 272.7344,18.3438 C272.4375,18.3438 272.2344,18.4375 272.0156,18.75 L271.8438,18.6719 Z"/><text x="283.5" y="27.154" fill="#000" font-family="sans-serif" font-size="12" lengthAdjust="spacing" textLength="149">tdd:DirectoryDescription</text><path id="td:Thing-to-tdd:RegistrationInformation" fill="none" d="M245,132.205 C245,149.956 245,179.9409 245,203.942" codeLine="15" style="stroke:#a80036;stroke-width:1"/><polygon fill="#A80036" points="245 208.966 249 199.966 245 203.966 241 199.966 245 208.966" style="stroke:#a80036;stroke-width:1"/><text x="246" y="175.067" fill="#000" font-family="sans-serif" font-size="13" lengthAdjust="spacing" textLength="200">tdd:hasRegistrationInformation</text><path id="tdd:LinkDescription-to-td:Thing" fill="none" d="M161.513,39.027 C175.626,51.87 196.328,70.708 213.585,86.413" codeLine="18" style="stroke:#a80036;stroke-width:1"/><polygon fill="none" points="218.382 81.313 228.463 99.951 208.959 91.667 218.382 81.313" style="stroke:#a80036;stroke-width:1"/><path id="tdd:DirectoryDescription-to-td:Thing" fill="none" d="M328.487,39.027 C314.374,51.87 293.672,70.708 276.415,86.413" codeLine="19" style="stroke:#a80036;stroke-width:1"/><polygon fill="none" points="281.041 91.667 261.537 99.951 271.618 81.313 281.041 91.667" style="stroke:#a80036;stroke-width:1"/></g></svg>